<svg xmlns="http://www.w3.org/2000/svg" viewBox="0 0 442 442" style="enable-background:new 0 0 442 442" xml:space="preserve"><path d="M391.556 0h-40a10 10 0 0 0-9.894 8.545L331.154 80H50.444c-.116 0-.23.014-.345.019-.227.008-.454.013-.677.036-.19.02-.377.056-.565.086-.148.024-.299.041-.445.072-.203.042-.402.1-.602.155-.123.034-.249.063-.37.101a9.952 9.952 0 0 0-.645.236c-.093.037-.187.069-.278.108a9.704 9.704 0 0 0-.689.333c-.059.031-.119.059-.177.091-.246.135-.485.282-.72.438l-.087.058a10.194 10.194 0 0 0-.744.558 9.91 9.91 0 0 0-1.148 1.089 10 10 0 0 0-2.432 7.85l18.46 149.526a10 10 0 0 0 8.677 8.696l234.245 29.465L292.919 340H81.556c-5.523 0-10 4.478-10 10s4.477 10 10 10h220a10 10 0 0 0 9.894-8.545L360.192 20h31.363c5.522 0 10-4.478 10-10s-4.477-10-9.999-10zM77.875 230.577 61.755 100h266.458l-23.4 159.122-226.938-28.545zM107.556 370c-19.851 0-36 16.149-36 36s16.149 36 36 36 36-16.149 36-36-16.15-36-36-36zm0 52c-8.822 0-16-7.178-16-16s7.178-16 16-16 16 7.178 16 16-7.178 16-16 16zM275.556 370c-19.851 0-36 16.149-36 36s16.149 36 36 36 36-16.149 36-36-16.15-36-36-36zm0 52c-8.822 0-16-7.178-16-16s7.178-16 16-16 16 7.178 16 16-7.178 16-16 16z"/><path d="M299.679 158.872c.127.005.252.007.378.007 5.352 0 9.786-4.236 9.986-9.629.205-5.52-4.104-10.159-9.622-10.364l-49.056-1.821 1.581-16.086c.54-5.497-3.478-10.391-8.974-10.931-5.501-.535-10.391 3.479-10.931 8.974l-1.701 17.3-71.963-2.671.275-13.446c.113-5.522-4.271-10.09-9.793-10.203l-.208-.002c-5.428 0-9.882 4.344-9.994 9.795l-.268 13.114-52.053-1.932c-5.513-.217-10.159 4.104-10.364 9.622-.205 5.52 4.103 10.159 9.622 10.364l52.386 1.944-.669 32.697-44.249-3.485c-5.508-.438-10.321 3.678-10.754 9.184s3.678 10.32 9.184 10.754l45.41 3.576-.273 13.354c-.113 5.522 4.271 10.09 9.793 10.203l.208.002c5.428 0 9.882-4.344 9.994-9.795l.25-12.191 65.99 5.197-1.617 16.448c-.54 5.497 3.478 10.391 8.974 10.931.333.032.663.049.99.049 5.082 0 9.433-3.859 9.94-9.022l1.655-16.835 46.114 3.632c.268.021.532.032.796.032 5.167 0 9.546-3.978 9.958-9.216.434-5.506-3.678-10.32-9.184-10.754l-45.727-3.601 3.643-37.061 50.273 1.866zm-73.859 33.624-67.537-5.319.686-33.528 70.413 2.613-3.562 36.234z"/></svg>