<svg xmlns="http://www.w3.org/2000/svg" viewBox="0 0 510.857 510.857" style="enable-background:new 0 0 510.857 510.857" xml:space="preserve"><path style="fill:#ccc" d="m254.429 20.444 75.885 154.515 170.057 24.686-122.514 119.771L406.2 488.559l-151.771-79.543-151.772 79.543L131 319.416 8.486 199.645l170.057-24.686z" transform="translate(1 1)"/><path style="fill:#e2e3e5" d="m464.714 199.645-170.057-24.686-58.514-117.943-54.857 117.943-170.057 24.686 123.429 119.771L105.4 488.559 227 413.587l16.457 6.4c1.829-5.486 7.314-8.229 11.886-7.314 10.971 1.829 22.857 6.4 32 12.8 1.829.914 2.743 2.743 3.657 3.657 1.829.914 2.743 1.829 3.657 2.743.914-.914 2.743-.914 3.657-.914 4.571 0 8.229 2.743 9.143 6.4.914-.914 2.743-.914 4.571-.914 7.314 0 10.057 6.4 9.143 11.886l52.114 20.114-32-149.029 123.429-119.771z" transform="translate(1 1)"/><path style="fill:#fff" d="M178.543 174.959 8.486 199.645l123.429 119.771-29.257 169.143 43.886-22.857s0-.914-.914-.914l-10.057 3.657 32-149.029-123.43-119.771 128-23.771 6.4-.915z" transform="translate(1 1)"/><path style="fill:#b6b6b6" d="M102.657 497.702c-1.829 0-3.657-.914-5.486-1.829-2.743-1.829-4.571-5.486-3.657-9.143l28.343-164.571L2.086 206.044c-2.743-2.743-3.657-6.4-2.743-9.143.914-3.657 3.657-5.486 7.314-6.4l165.486-24.686L246.2 15.873c2.743-6.4 13.714-6.4 16.457 0l74.057 149.943L502.2 189.587c3.657.914 6.4 2.743 7.314 6.4s0 7.314-2.743 9.143L387 322.159l28.343 164.571c.914 3.657-.914 7.314-3.657 9.143-2.743 1.829-6.4 2.743-10.057.914l-147.2-77.714-148.114 77.714c-.915.915-2.744.915-3.658.915zM27.686 206.044 137.4 313.016c1.829 1.829 2.743 5.486 2.743 8.229l-25.6 150.857 136.229-71.314c2.743-1.829 5.486-1.829 8.229 0l136.229 71.314-25.6-150.857c-.914-2.743.914-6.4 2.743-8.229l109.714-106.971-151.771-21.943c-2.743 0-5.486-2.743-7.314-4.571L254.429 41.473l-67.657 137.143c-.914 2.743-3.657 4.571-7.314 4.571L27.686 206.044z" transform="translate(1 1)"/></svg>